<mxfile host="app.diagrams.net" modified="2020-04-05T14:27:00.546Z" agent="5.0 (Windows NT 10.0; Win64; x64) AppleWebKit/537.36 (KHTML, like Gecko) Chrome/80.0.3987.149 Safari/537.36" etag="NMvi5g9Tn4zoMv7BP2Xm" version="12.9.7" type="github">
  <diagram id="8WfZ3dZReKam-P5BLzc5" name="Page-1">
    <mxGraphModel dx="1038" dy="531" grid="1" gridSize="10" guides="1" tooltips="1" connect="1" arrows="1" fold="1" page="1" pageScale="1" pageWidth="850" pageHeight="1100" math="0" shadow="0">
      <root>
        <mxCell id="0" />
        <mxCell id="1" parent="0" />
        <mxCell id="5EDrtBz7e7ODney3Kfua-1" value="" style="rounded=0;whiteSpace=wrap;html=1;fillColor=#dae8fc;strokeColor=#6c8ebf;gradientColor=#7ea6e0;" vertex="1" parent="1">
          <mxGeometry x="60" y="220" width="790" height="410" as="geometry" />
        </mxCell>
        <mxCell id="5EDrtBz7e7ODney3Kfua-2" value="4 Better Maths" style="text;html=1;strokeColor=#666666;fillColor=#f5f5f5;align=center;verticalAlign=middle;whiteSpace=wrap;rounded=0;gradientColor=#b3b3b3;" vertex="1" parent="1">
          <mxGeometry x="175" y="220" width="560" height="80" as="geometry" />
        </mxCell>
        <mxCell id="5EDrtBz7e7ODney3Kfua-3" value="Exit" style="rounded=0;whiteSpace=wrap;html=1;fillColor=#ffcc99;strokeColor=#36393d;" vertex="1" parent="1">
          <mxGeometry x="85" y="580" width="90" height="30" as="geometry" />
        </mxCell>
        <mxCell id="5EDrtBz7e7ODney3Kfua-4" value="" style="pointerEvents=1;shadow=0;dashed=0;html=1;strokeColor=none;labelPosition=center;verticalLabelPosition=bottom;verticalAlign=top;outlineConnect=0;align=center;shape=mxgraph.office.concepts.home;fillColor=#DA4026;" vertex="1" parent="1">
          <mxGeometry x="740" y="220" width="100" height="80" as="geometry" />
        </mxCell>
        <mxCell id="5EDrtBz7e7ODney3Kfua-5" value="Name" style="rounded=0;whiteSpace=wrap;html=1;" vertex="1" parent="1">
          <mxGeometry x="342.5" y="405" width="225" height="40" as="geometry" />
        </mxCell>
        <mxCell id="5EDrtBz7e7ODney3Kfua-6" value="Well done on completing Level x&lt;br&gt;Register below for a chance to ..." style="text;html=1;strokeColor=none;fillColor=none;align=center;verticalAlign=middle;whiteSpace=wrap;rounded=0;" vertex="1" parent="1">
          <mxGeometry x="342.5" y="330" width="227.5" height="40" as="geometry" />
        </mxCell>
        <mxCell id="5EDrtBz7e7ODney3Kfua-7" value="Class" style="rounded=0;whiteSpace=wrap;html=1;" vertex="1" parent="1">
          <mxGeometry x="342.5" y="460" width="225" height="40" as="geometry" />
        </mxCell>
        <mxCell id="5EDrtBz7e7ODney3Kfua-9" value="OK!" style="rounded=0;whiteSpace=wrap;html=1;fillColor=#d5e8d4;strokeColor=#82b366;" vertex="1" parent="1">
          <mxGeometry x="472.5" y="520" width="95" height="30" as="geometry" />
        </mxCell>
        <mxCell id="5EDrtBz7e7ODney3Kfua-11" value="Clear" style="rounded=0;whiteSpace=wrap;html=1;fillColor=#f8cecc;strokeColor=#b85450;" vertex="1" parent="1">
          <mxGeometry x="342.5" y="520" width="95" height="30" as="geometry" />
        </mxCell>
      </root>
    </mxGraphModel>
  </diagram>
</mxfile>
